<svg width="21" height="20" viewBox="0 0 21 20" fill="none" xmlns="http://www.w3.org/2000/svg">
<path d="M20.6832 15.767C19.7538 13.8283 18.1687 12.5633 15.9043 11.9989C15.5642 11.9141 15.2027 11.9983 14.9312 12.2199L13.0506 13.7555C12.6834 14.0553 12.1644 14.0939 11.7608 13.8451C9.77151 12.6188 8.16193 11.0104 6.9348 9.0226C6.68586 8.6193 6.72446 8.10072 7.02451 7.73377L8.56116 5.85455C8.78299 5.58327 8.86725 5.22221 8.7824 4.88217C8.21752 2.6195 6.95159 1.03562 5.01149 0.106771C4.69847 -0.0430745 4.32918 -0.0346827 4.02309 0.128703C3.04752 0.649313 2.11406 1.23854 1.22982 1.90091C0.891173 2.15453 0.720294 2.57402 0.790848 2.99104C1.42659 6.75334 3.46085 10.7098 6.76662 14.0129C10.0725 17.3164 14.0317 19.3491 17.7966 19.9844C18.2138 20.0547 18.6335 19.884 18.8875 19.5457C19.5505 18.6621 20.14 17.7293 20.661 16.7545C20.8243 16.4485 20.8327 16.0794 20.6828 15.7666L20.6832 15.767Z" fill="#1A3C34"/>
</svg>
