<svg width="39" height="14" viewBox="0 0 39 14" fill="none" xmlns="http://www.w3.org/2000/svg">
<path id="Vector" d="M19.5266 13.0756L19.3834 13.0422L19.2405 13.0756C19.0597 13.1178 18.8583 13.114 18.6632 13.05L1.26436 7.344C0.891927 7.2218 0.806152 6.99698 0.806152 6.8642C0.806152 6.7314 0.891927 6.5066 1.26436 6.3844L18.6632 0.678381C18.8583 0.614374 19.0597 0.610589 19.2405 0.652839L19.3834 0.686276L19.5266 0.652846C19.7075 0.610609 19.9089 0.614399 20.104 0.678399L37.5025 6.38443C37.8752 6.50663 37.961 6.73143 37.961 6.86423C37.961 6.997 37.8752 7.22183 37.5025 7.34403L20.104 13.0501C19.9086 13.1141 19.7075 13.1178 19.5266 13.0756Z" stroke="#1A3C34" stroke-width="0.5"/>
</svg>
